<svg width="20" height="20" viewBox="0 0 20 20" fill="none" xmlns="http://www.w3.org/2000/svg">
<path d="M12.1473 0.0293039C13.116 0.269206 14.043 0.653509 14.8973 1.1693C15.0686 1.27266 15.2049 1.42501 15.2887 1.60666C15.3725 1.78832 15.3999 1.99093 15.3673 2.1883C15.2543 2.8773 15.4253 3.4043 15.7473 3.7263C16.0693 4.0483 16.5973 4.2193 17.2853 4.1063C17.4827 4.07373 17.6853 4.10111 17.8669 4.1849C18.0486 4.26868 18.2009 4.40503 18.3043 4.5763C18.8201 5.43058 19.2044 6.35763 19.4443 7.3263C19.4926 7.52064 19.4814 7.725 19.4123 7.91292C19.3431 8.10084 19.2191 8.26366 19.0563 8.3803C18.4893 8.7873 18.2363 9.2803 18.2363 9.7363C18.2363 10.1923 18.4893 10.6863 19.0563 11.0933C19.2189 11.2099 19.3428 11.3725 19.4119 11.5602C19.4811 11.748 19.4924 11.9521 19.4443 12.1463C19.2044 13.115 18.8201 14.042 18.3043 14.8963C18.2009 15.0676 18.0486 15.2039 17.8669 15.2877C17.6853 15.3715 17.4827 15.3989 17.2853 15.3663C16.5963 15.2533 16.0693 15.4253 15.7473 15.7463C15.4253 16.0683 15.2543 16.5963 15.3673 17.2843C15.4001 17.4818 15.3728 17.6847 15.289 17.8665C15.2052 18.0484 15.0688 18.2009 14.8973 18.3043C14.043 18.8201 13.116 19.2044 12.1473 19.4443C11.953 19.4926 11.7486 19.4814 11.5607 19.4123C11.3728 19.3431 11.2099 19.2191 11.0933 19.0563C10.6863 18.4883 10.1933 18.2363 9.7373 18.2363C9.2813 18.2363 8.7873 18.4883 8.3803 19.0563C8.26373 19.2189 8.10108 19.3428 7.91336 19.4119C7.72564 19.4811 7.5215 19.4924 7.3273 19.4443C6.35865 19.2044 5.4316 18.8201 4.5773 18.3043C4.40585 18.2009 4.26939 18.0484 4.18559 17.8665C4.1018 17.6847 4.07452 17.4818 4.1073 17.2843C4.2203 16.5963 4.0483 16.0693 3.7273 15.7473C3.4043 15.4253 2.8773 15.2533 2.1893 15.3673C1.99177 15.4001 1.78895 15.3728 1.60709 15.289C1.42524 15.2052 1.27273 15.0688 1.1693 14.8973C0.653338 14.0424 0.269031 13.1147 0.029304 12.1453C-0.0187711 11.9511 -0.00749596 11.747 0.0616722 11.5592C0.13084 11.3715 0.254722 11.2089 0.417304 11.0923C0.985304 10.6863 1.2373 10.1923 1.2373 9.7363C1.2373 9.2813 0.985304 8.7863 0.417304 8.3803C0.254722 8.26373 0.13084 8.10108 0.0616722 7.91336C-0.00749596 7.72564 -0.0187711 7.5215 0.029304 7.3273C0.269112 6.3583 0.653417 5.43091 1.1693 4.5763C1.27273 4.40485 1.42524 4.26839 1.60709 4.18459C1.78895 4.1008 1.99177 4.07352 2.1893 4.1063C2.8773 4.2193 3.4043 4.0483 3.7263 3.7263C4.0483 3.4043 4.2203 2.8763 4.1063 2.1883C4.07373 1.99093 4.10111 1.78832 4.1849 1.60666C4.26868 1.42501 4.40503 1.27266 4.5763 1.1693C5.4309 0.653404 6.35829 0.269097 7.3273 0.0293039C7.5215 -0.0187711 7.72564 -0.00749581 7.91336 0.0616723C8.10108 0.130841 8.26373 0.254722 8.3803 0.417304C8.7873 0.984304 9.2813 1.2373 9.7373 1.2373C10.1923 1.2373 10.6873 0.984304 11.0933 0.417304C11.2099 0.254722 11.3725 0.130841 11.5602 0.0616723C11.748 -0.00749581 11.9531 -0.0187711 12.1473 0.0293039ZM9.7373 4.7363C8.41122 4.7363 7.13945 5.26309 6.20177 6.20077C5.26409 7.13845 4.7373 8.41022 4.7373 9.7363C4.7373 11.0624 5.26409 12.3342 6.20177 13.2718C7.13945 14.2095 8.41122 14.7363 9.7373 14.7363C11.0634 14.7363 12.3352 14.2095 13.2728 13.2718C14.2105 12.3342 14.7373 11.0624 14.7373 9.7363C14.7373 8.41022 14.2105 7.13845 13.2728 6.20077C12.3352 5.26309 11.0634 4.7363 9.7373 4.7363ZM9.7373 6.7363C10.533 6.7363 11.296 7.05237 11.8586 7.61498C12.4212 8.17759 12.7373 8.94065 12.7373 9.7363C12.7373 10.532 12.4212 11.295 11.8586 11.8576C11.296 12.4202 10.533 12.7363 9.7373 12.7363C8.94165 12.7363 8.17859 12.4202 7.61598 11.8576C7.05337 11.295 6.7373 10.532 6.7373 9.7363C6.7373 8.94065 7.05337 8.17759 7.61598 7.61498C8.17859 7.05237 8.94165 6.7363 9.7373 6.7363Z" fill="black"/>
</svg>
